<svg xmlns="http://www.w3.org/2000/svg" xmlns:xlink="http://www.w3.org/1999/xlink" width="1500" zoomAndPan="magnify" viewBox="0 0 1125 809.999993" height="1080" preserveAspectRatio="xMidYMid meet" version="1.0"><defs><g/><clipPath id="d0792b3ef6"><rect x="0" width="933" y="0" height="484"/></clipPath></defs><g transform="matrix(1, 0, 0, 1, 98, 206)"><g clip-path="url(#d0792b3ef6)"><g fill="#ffffff" fill-opacity="1"><g transform="translate(56.394007, 333.151388)"><g><path d="M 81.078125 -8.515625 C 78.035156 -8.203125 75.554688 -9.328125 73.640625 -11.890625 C 72.796875 -13.140625 72.125 -14.425781 71.625 -15.75 C 71.125 -17.082031 70.703125 -18.453125 70.359375 -19.859375 C 70.171875 -20.648438 70.015625 -21.375 69.890625 -22.03125 C 69.773438 -22.6875 69.675781 -23.367188 69.59375 -24.078125 C 69.40625 -25.898438 69.316406 -27.707031 69.328125 -29.5 C 69.347656 -31.300781 69.46875 -33.082031 69.6875 -34.84375 L 71.375 -48.109375 C 71.5 -48.941406 71.59375 -49.742188 71.65625 -50.515625 C 71.726562 -51.296875 71.726562 -52.039062 71.65625 -52.75 L 71.625 -53.0625 C 71.601562 -53.257812 71.550781 -53.484375 71.46875 -53.734375 C 71.394531 -53.984375 71.34375 -54.257812 71.3125 -54.5625 C 70.914062 -54.425781 70.566406 -54.3125 70.265625 -54.21875 C 69.972656 -54.132812 69.738281 -53.976562 69.5625 -53.75 C 68.800781 -53.15625 68.015625 -52.5625 67.203125 -51.96875 C 66.390625 -51.375 65.609375 -50.734375 64.859375 -50.046875 C 62.054688 -47.484375 59.3125 -44.828125 56.625 -42.078125 C 53.9375 -39.335938 51.25 -36.648438 48.5625 -34.015625 C 46.414062 -31.941406 44.273438 -29.816406 42.140625 -27.640625 C 40.015625 -25.472656 37.828125 -23.40625 35.578125 -21.4375 C 34.640625 -20.601562 33.664062 -19.878906 32.65625 -19.265625 C 31.644531 -18.648438 30.722656 -17.941406 29.890625 -17.140625 C 28.941406 -16.316406 27.757812 -15.828125 26.34375 -15.671875 C 25.332031 -15.566406 24.390625 -15.78125 23.515625 -16.3125 C 22.640625 -16.84375 22.148438 -17.613281 22.046875 -18.625 L 21.96875 -19.234375 C 21.914062 -19.742188 21.894531 -20.175781 21.90625 -20.53125 C 21.925781 -20.882812 21.96875 -21.269531 22.03125 -21.6875 C 22.332031 -22.65625 22.535156 -23.601562 22.640625 -24.53125 C 22.742188 -25.46875 22.957031 -26.359375 23.28125 -27.203125 C 24.53125 -30.921875 25.828125 -34.671875 27.171875 -38.453125 C 28.523438 -42.242188 29.820312 -45.992188 31.0625 -49.703125 L 33.734375 -57.984375 C 33.910156 -58.316406 34.003906 -58.660156 34.015625 -59.015625 C 34.035156 -59.367188 34.078125 -59.707031 34.140625 -60.03125 C 33.929688 -60.101562 33.675781 -60.125 33.375 -60.09375 C 33.164062 -60.070312 32.988281 -60.003906 32.84375 -59.890625 C 32.695312 -59.773438 32.535156 -59.65625 32.359375 -59.53125 C 28.890625 -57.320312 25.734375 -54.632812 22.890625 -51.46875 C 21.328125 -49.769531 19.757812 -48.09375 18.1875 -46.4375 C 16.625 -44.78125 15.066406 -43.050781 13.515625 -41.25 C 9.953125 -37.082031 6.425781 -32.816406 2.9375 -28.453125 C -0.550781 -24.085938 -4.125 -19.765625 -7.78125 -15.484375 C -9.800781 -13.222656 -11.734375 -10.921875 -13.578125 -8.578125 C -15.429688 -6.234375 -17.421875 -3.921875 -19.546875 -1.640625 C -19.910156 -1.191406 -20.304688 -0.789062 -20.734375 -0.4375 C -21.160156 -0.0820312 -21.609375 0.269531 -22.078125 0.625 C -22.359375 0.851562 -22.796875 1.101562 -23.390625 1.375 C -23.578125 1.5 -23.828125 1.578125 -24.140625 1.609375 C -25.660156 1.765625 -26.503906 1.082031 -26.671875 -0.4375 C -26.722656 -0.945312 -26.597656 -1.492188 -26.296875 -2.078125 C -25.992188 -2.671875 -25.710938 -3.1875 -25.453125 -3.625 C -24.765625 -4.925781 -24.023438 -6.207031 -23.234375 -7.46875 C -22.453125 -8.738281 -21.710938 -9.972656 -21.015625 -11.171875 C -17.003906 -17.953125 -13.257812 -24.78125 -9.78125 -31.65625 C -6.300781 -38.53125 -2.742188 -45.644531 0.890625 -53 C 2.835938 -56.894531 4.722656 -60.65625 6.546875 -64.28125 C 8.367188 -67.90625 10.160156 -71.601562 11.921875 -75.375 C 12.078125 -75.800781 12.289062 -76.207031 12.5625 -76.59375 C 12.832031 -76.976562 13.085938 -77.390625 13.328125 -77.828125 C 13.503906 -78.160156 13.757812 -78.445312 14.09375 -78.6875 C 14.4375 -78.925781 14.695312 -79.15625 14.875 -79.375 C 15.238281 -79.832031 15.773438 -80.097656 16.484375 -80.171875 C 17.191406 -80.242188 17.710938 -80.195312 18.046875 -80.03125 C 19.003906 -79.613281 19.550781 -78.796875 19.6875 -77.578125 C 19.769531 -76.765625 19.710938 -75.785156 19.515625 -74.640625 C 19.253906 -73.273438 18.882812 -71.925781 18.40625 -70.59375 C 17.9375 -69.269531 17.304688 -68.003906 16.515625 -66.796875 C 16.148438 -66.335938 15.785156 -65.859375 15.421875 -65.359375 C 15.054688 -64.867188 14.59375 -64.488281 14.03125 -64.21875 C 13.238281 -63.832031 12.722656 -63.320312 12.484375 -62.6875 L 11.375 -60.09375 C 8.96875 -54.613281 6.21875 -49.273438 3.125 -44.078125 C 0.0390625 -38.878906 -2.753906 -33.59375 -5.265625 -28.21875 L -6.40625 -25.78125 C -6.175781 -25.601562 -6.015625 -25.515625 -5.921875 -25.515625 L -4.015625 -27.875 C -1.097656 -31.457031 1.820312 -34.914062 4.75 -38.25 C 7.675781 -41.582031 10.597656 -44.945312 13.515625 -48.34375 C 17.546875 -52.957031 21.96875 -57.210938 26.78125 -61.109375 C 27.644531 -61.804688 28.554688 -62.460938 29.515625 -63.078125 C 30.472656 -63.703125 31.488281 -64.273438 32.5625 -64.796875 C 33.445312 -65.179688 34.34375 -65.421875 35.25 -65.515625 C 37.382812 -65.742188 38.554688 -64.84375 38.765625 -62.8125 L 38.8125 -62.375 C 38.914062 -61.351562 38.875 -60.269531 38.6875 -59.125 C 38.425781 -57.757812 38.082031 -56.4375 37.65625 -55.15625 C 37.226562 -53.882812 36.769531 -52.609375 36.28125 -51.328125 L 29.078125 -30.734375 C 28.691406 -29.472656 28.332031 -28.207031 28 -26.9375 C 27.675781 -25.675781 27.320312 -24.457031 26.9375 -23.28125 C 26.875 -22.863281 26.832031 -22.5 26.8125 -22.1875 C 26.789062 -21.875 26.742188 -21.566406 26.671875 -21.265625 C 27.128906 -20.910156 27.632812 -20.96875 28.1875 -21.4375 C 29.132812 -22.238281 30.082031 -23 31.03125 -23.71875 C 31.988281 -24.4375 32.882812 -25.191406 33.71875 -25.984375 C 39.25 -31.796875 44.957031 -37.472656 50.84375 -43.015625 C 52.988281 -44.992188 55.109375 -46.988281 57.203125 -49 C 59.304688 -51.007812 61.382812 -52.992188 63.4375 -54.953125 C 64.175781 -55.660156 64.953125 -56.257812 65.765625 -56.75 C 66.585938 -57.238281 67.328125 -57.773438 67.984375 -58.359375 C 68.753906 -58.953125 69.742188 -59.316406 70.953125 -59.453125 C 73.492188 -59.710938 75.148438 -58.597656 75.921875 -56.109375 C 76.066406 -55.710938 76.15625 -55.335938 76.1875 -54.984375 C 76.226562 -54.628906 76.269531 -54.25 76.3125 -53.84375 C 76.445312 -52.53125 76.441406 -51.144531 76.296875 -49.6875 C 76.117188 -47.414062 75.863281 -45.132812 75.53125 -42.84375 C 75.207031 -40.5625 74.914062 -38.273438 74.65625 -35.984375 C 74.488281 -34.640625 74.300781 -33.265625 74.09375 -31.859375 C 73.882812 -30.453125 73.851562 -29.039062 74 -27.625 C 74.0625 -27.007812 74.09375 -26.421875 74.09375 -25.859375 C 74.101562 -25.296875 74.144531 -24.710938 74.21875 -24.109375 C 74.40625 -22.273438 74.859375 -20.375 75.578125 -18.40625 C 75.859375 -17.71875 76.160156 -17.054688 76.484375 -16.421875 C 76.804688 -15.785156 77.148438 -15.179688 77.515625 -14.609375 C 78.242188 -13.453125 79.269531 -12.941406 80.59375 -13.078125 C 81.914062 -13.222656 83.25 -13.722656 84.59375 -14.578125 C 85.65625 -15.203125 86.640625 -15.84375 87.546875 -16.5 C 88.453125 -17.164062 89.332031 -17.851562 90.1875 -18.5625 C 94.707031 -22.3125 98.875 -26.539062 102.6875 -31.25 C 105.125 -34.269531 107.421875 -37.253906 109.578125 -40.203125 C 111.734375 -43.148438 114.210938 -46.359375 117.015625 -49.828125 L 117.984375 -51.015625 C 118.703125 -51.898438 119.554688 -52.035156 120.546875 -51.421875 C 121.523438 -50.804688 121.929688 -49.925781 121.765625 -48.78125 C 121.691406 -48.46875 121.484375 -47.988281 121.140625 -47.34375 C 120.960938 -47.007812 120.765625 -46.675781 120.546875 -46.34375 C 120.328125 -46.007812 120.078125 -45.679688 119.796875 -45.359375 L 104.03125 -25.859375 C 102.300781 -23.734375 100.441406 -21.640625 98.453125 -19.578125 C 96.460938 -17.523438 94.320312 -15.65625 92.03125 -13.96875 C 90.988281 -13.15625 89.914062 -12.40625 88.8125 -11.71875 C 87.707031 -11.03125 86.523438 -10.367188 85.265625 -9.734375 C 83.796875 -9.066406 82.398438 -8.660156 81.078125 -8.515625 Z M 81.078125 -8.515625 "/></g></g><g transform="translate(180.21359, 320.137426)"><g><path d="M 37.984375 -17.515625 C 35.347656 -17.234375 33.050781 -17.609375 31.09375 -18.640625 C 29.132812 -19.671875 27.597656 -21.148438 26.484375 -23.078125 C 25.734375 -24.429688 25.109375 -25.773438 24.609375 -27.109375 C 24.109375 -28.453125 23.785156 -29.832031 23.640625 -31.25 L 23.03125 -37.03125 C 22.351562 -37.570312 21.835938 -38.03125 21.484375 -38.40625 C 21.140625 -38.78125 20.941406 -39.222656 20.890625 -39.734375 C 20.867188 -39.929688 20.863281 -40.179688 20.875 -40.484375 C 20.894531 -40.796875 20.9375 -41.160156 21 -41.578125 C 21.125 -42.410156 21.285156 -43.347656 21.484375 -44.390625 C 21.679688 -45.441406 21.875 -46.539062 22.0625 -47.6875 C 21.695312 -47.238281 21.394531 -46.898438 21.15625 -46.671875 C 20.925781 -46.441406 20.71875 -46.21875 20.53125 -46 C 18.90625 -43.976562 17.410156 -41.894531 16.046875 -39.75 C 14.691406 -37.613281 13.300781 -35.492188 11.875 -33.390625 C 10.789062 -31.847656 9.671875 -30.269531 8.515625 -28.65625 C 7.359375 -27.039062 6.140625 -25.453125 4.859375 -23.890625 C 3.960938 -22.765625 3.019531 -21.765625 2.03125 -20.890625 C 1.039062 -20.015625 0.0390625 -19.066406 -0.96875 -18.046875 C -1.4375 -17.585938 -2.003906 -17.140625 -2.671875 -16.703125 C -3.335938 -16.273438 -4.070312 -15.914062 -4.875 -15.625 C -5.0625 -15.5 -5.304688 -15.421875 -5.609375 -15.390625 C -5.910156 -15.359375 -6.160156 -15.332031 -6.359375 -15.3125 C -7.585938 -15.1875 -8.628906 -15.539062 -9.484375 -16.375 C -10.347656 -17.207031 -10.847656 -18.289062 -10.984375 -19.625 C -11.066406 -20.425781 -11.050781 -21.265625 -10.9375 -22.140625 C -10.832031 -23.023438 -10.660156 -23.84375 -10.421875 -24.59375 C -9.597656 -27.445312 -8.59375 -30.296875 -7.40625 -33.140625 C -6.21875 -35.984375 -4.9375 -38.703125 -3.5625 -41.296875 C -2.1875 -43.804688 -0.636719 -46.148438 1.078125 -48.328125 C 2.796875 -50.503906 4.578125 -52.5625 6.421875 -54.5 C 7.441406 -55.53125 8.515625 -56.515625 9.640625 -57.453125 C 10.773438 -58.398438 11.96875 -59.25 13.21875 -60 C 13.90625 -60.363281 14.613281 -60.710938 15.34375 -61.046875 C 16.082031 -61.378906 16.800781 -61.640625 17.5 -61.828125 C 17.882812 -61.972656 18.226562 -62.082031 18.53125 -62.15625 C 18.832031 -62.238281 19.132812 -62.296875 19.4375 -62.328125 C 20.34375 -62.421875 21.210938 -62.40625 22.046875 -62.28125 C 22.890625 -62.164062 23.703125 -61.800781 24.484375 -61.1875 L 25.15625 -60.625 L 25.46875 -60.515625 L 27.203125 -61.59375 C 27.390625 -61.71875 27.640625 -61.796875 27.953125 -61.828125 C 29.472656 -61.992188 30.316406 -61.316406 30.484375 -59.796875 C 30.523438 -59.390625 30.519531 -58.925781 30.46875 -58.40625 C 30.414062 -57.882812 30.3125 -57.359375 30.15625 -56.828125 C 29.738281 -55.046875 29.394531 -53.242188 29.125 -51.421875 C 28.851562 -49.597656 28.5625 -47.75 28.25 -45.875 C 27.976562 -43.59375 27.863281 -41.273438 27.90625 -38.921875 C 27.945312 -36.566406 28.09375 -34.222656 28.34375 -31.890625 C 28.5625 -29.765625 29.125 -27.828125 30.03125 -26.078125 C 31.664062 -23.066406 34.207031 -21.742188 37.65625 -22.109375 C 38.769531 -22.222656 39.828125 -22.40625 40.828125 -22.65625 C 41.828125 -22.914062 42.8125 -23.351562 43.78125 -23.96875 C 44.53125 -24.5625 45.335938 -25.113281 46.203125 -25.625 C 47.078125 -26.132812 47.945312 -26.6875 48.8125 -27.28125 C 51.5625 -29.300781 54.117188 -31.488281 56.484375 -33.84375 C 58.859375 -36.195312 61.132812 -38.71875 63.3125 -41.40625 C 63.675781 -41.851562 63.992188 -42.269531 64.265625 -42.65625 C 64.535156 -43.039062 64.53125 -43.582031 64.25 -44.28125 C 64.144531 -44.269531 64.082031 -44.363281 64.0625 -44.5625 C 64.03125 -44.863281 64.179688 -45.109375 64.515625 -45.296875 C 64.859375 -45.484375 65.117188 -45.691406 65.296875 -45.921875 C 65.472656 -46.148438 65.816406 -46.289062 66.328125 -46.34375 C 67.046875 -46.414062 67.707031 -46.226562 68.3125 -45.78125 C 68.925781 -45.332031 69.269531 -44.753906 69.34375 -44.046875 C 69.445312 -43.128906 69.28125 -42.289062 68.84375 -41.53125 C 68.582031 -41.09375 68.316406 -40.679688 68.046875 -40.296875 C 67.773438 -39.910156 67.503906 -39.550781 67.234375 -39.21875 C 64.960938 -36.40625 62.613281 -33.847656 60.1875 -31.546875 C 57.769531 -29.242188 55.195312 -26.921875 52.46875 -24.578125 C 50.875 -23.179688 49.164062 -21.875 47.34375 -20.65625 C 45.53125 -19.445312 43.570312 -18.628906 41.46875 -18.203125 C 40.863281 -18.023438 40.285156 -17.878906 39.734375 -17.765625 C 39.179688 -17.660156 38.597656 -17.578125 37.984375 -17.515625 Z M -6.25 -19.953125 C -5.945312 -19.984375 -5.601562 -20.125 -5.21875 -20.375 C -4.53125 -20.757812 -3.90625 -21.207031 -3.34375 -21.71875 C -2.789062 -22.238281 -2.234375 -22.734375 -1.671875 -23.203125 C -0.359375 -24.359375 0.769531 -25.550781 1.71875 -26.78125 C 2.675781 -28.007812 3.632812 -29.335938 4.59375 -30.765625 C 7.457031 -34.867188 10.609375 -38.84375 14.046875 -42.6875 C 17.492188 -46.539062 20.09375 -50.8125 21.84375 -55.5 C 21.925781 -55.71875 22.003906 -55.929688 22.078125 -56.140625 C 22.160156 -56.359375 22.140625 -56.613281 22.015625 -56.90625 C 21.742188 -57.5 21.257812 -57.757812 20.5625 -57.6875 C 20.050781 -57.632812 19.5 -57.5 18.90625 -57.28125 C 18.3125 -57.0625 17.769531 -56.820312 17.28125 -56.5625 C 16.59375 -56.28125 15.910156 -55.925781 15.234375 -55.5 C 14.566406 -55.070312 13.847656 -54.566406 13.078125 -53.984375 C 12.046875 -53.148438 11.039062 -52.242188 10.0625 -51.265625 C 9.09375 -50.296875 8.15625 -49.25 7.25 -48.125 C 4.882812 -45.21875 2.710938 -42.222656 0.734375 -39.140625 C -1.242188 -36.054688 -2.921875 -32.753906 -4.296875 -29.234375 C -4.691406 -28.160156 -5.0625 -27.066406 -5.40625 -25.953125 C -5.757812 -24.847656 -6.082031 -23.710938 -6.375 -22.546875 C -6.5 -21.910156 -6.539062 -21.390625 -6.5 -20.984375 C -6.457031 -20.585938 -6.375 -20.242188 -6.25 -19.953125 Z M -6.25 -19.953125 "/></g></g><g transform="translate(251.402246, 312.655197)"><g><path d="M 14.8125 -85.84375 C 14 -85.75 13.273438 -86.023438 12.640625 -86.671875 C 12.015625 -87.328125 11.914062 -88.035156 12.34375 -88.796875 C 12.875 -89.671875 13.453125 -90.523438 14.078125 -91.359375 C 14.703125 -92.203125 15.335938 -93.019531 15.984375 -93.8125 C 16.347656 -94.257812 16.78125 -94.507812 17.28125 -94.5625 C 17.789062 -94.613281 18.210938 -94.5 18.546875 -94.21875 C 19.335938 -93.59375 19.757812 -93.023438 19.8125 -92.515625 C 19.894531 -91.804688 19.867188 -91.082031 19.734375 -90.34375 C 19.597656 -89.613281 19.46875 -88.882812 19.34375 -88.15625 C 19.300781 -87.53125 19.101562 -87.148438 18.75 -87.015625 C 18.40625 -86.878906 17.894531 -86.671875 17.21875 -86.390625 L 16.78125 -86.1875 C 16.1875 -85.9375 15.757812 -85.820312 15.5 -85.84375 C 15.25 -85.863281 15.019531 -85.863281 14.8125 -85.84375 Z M -101.296875 154.140625 C -104.335938 154.453125 -106.347656 153.378906 -107.328125 150.921875 C -107.484375 150.429688 -107.664062 149.890625 -107.875 149.296875 C -108.09375 148.703125 -108.226562 148.148438 -108.28125 147.640625 C -108.457031 146.015625 -108.390625 144.441406 -108.078125 142.921875 C -107.773438 141.410156 -107.40625 139.863281 -106.96875 138.28125 C -106.125 135.519531 -105.195312 132.832031 -104.1875 130.21875 C -103.1875 127.601562 -102 124.992188 -100.625 122.390625 C -97.894531 117.171875 -94.972656 112.039062 -91.859375 107 C -88.753906 101.957031 -85.5625 97.007812 -82.28125 92.15625 C -75.789062 82.65625 -69.019531 73.410156 -61.96875 64.421875 C -54.914062 55.429688 -47.476562 46.726562 -39.65625 38.3125 C -38.445312 37.050781 -37.25 35.742188 -36.0625 34.390625 C -34.875 33.046875 -33.679688 31.742188 -32.484375 30.484375 C -30.804688 28.765625 -29.582031 26.742188 -28.8125 24.421875 L -10.765625 -24.859375 C -8.679688 -30.398438 -6.5625 -35.875 -4.40625 -41.28125 C -2.25 -46.695312 -0.0195312 -52.035156 2.28125 -57.296875 L 4.78125 -62.796875 C 4.957031 -63.117188 5.316406 -63.617188 5.859375 -64.296875 C 6.578125 -65.179688 7.425781 -65.367188 8.40625 -64.859375 C 9.050781 -64.515625 9.414062 -63.988281 9.5 -63.28125 C 9.539062 -62.863281 9.484375 -62.441406 9.328125 -62.015625 C 9.171875 -61.597656 9.015625 -61.125 8.859375 -60.59375 C 7.960938 -56.40625 6.753906 -52.253906 5.234375 -48.140625 C 3.722656 -44.035156 2.003906 -39.988281 0.078125 -36 C -0.253906 -35.25 -0.332031 -34.46875 -0.15625 -33.65625 C -0.0390625 -33.570312 0.0234375 -33.425781 0.046875 -33.21875 C 0.0664062 -33.019531 0.0390625 -32.789062 -0.03125 -32.53125 C -0.101562 -32.269531 -0.179688 -32.023438 -0.265625 -31.796875 C -0.765625 -30.617188 -1.390625 -29.503906 -2.140625 -28.453125 C -2.898438 -27.398438 -4.03125 -26.695312 -5.53125 -26.34375 C -6.90625 -22.800781 -8.445312 -18.6875 -10.15625 -14 C -11.875 -9.3125 -13.539062 -4.675781 -15.15625 -0.09375 C -16.78125 4.476562 -18.140625 8.382812 -19.234375 11.625 C -20.328125 14.863281 -20.9375 16.90625 -21.0625 17.75 L -19.125 15.6875 C -13.570312 9.882812 -8.160156 3.988281 -2.890625 -2 C 2.367188 -7.988281 7.660156 -13.929688 12.984375 -19.828125 L 31.03125 -39.859375 C 31.394531 -40.203125 31.753906 -40.625 32.109375 -41.125 C 32.472656 -41.632812 32.910156 -41.914062 33.421875 -41.96875 C 33.628906 -41.988281 33.804688 -42.03125 33.953125 -42.09375 C 34.097656 -42.164062 34.21875 -42.207031 34.3125 -42.21875 C 35.125 -42.300781 35.765625 -42.054688 36.234375 -41.484375 C 36.585938 -41.109375 36.796875 -40.664062 36.859375 -40.15625 C 36.921875 -39.550781 36.722656 -38.972656 36.265625 -38.421875 L 35.5625 -37.71875 C 34.164062 -36.351562 32.820312 -34.957031 31.53125 -33.53125 C 30.25 -32.113281 28.96875 -30.675781 27.6875 -29.21875 C 19.738281 -19.96875 11.648438 -10.832031 3.421875 -1.8125 C -4.792969 7.195312 -13.054688 16.191406 -21.359375 25.171875 C -24.753906 28.898438 -27.335938 33.066406 -29.109375 37.671875 C -36.953125 58.578125 -46.191406 78.976562 -56.828125 98.875 C -59.554688 104.070312 -62.441406 109.238281 -65.484375 114.375 C -68.535156 119.519531 -71.804688 124.53125 -75.296875 129.40625 C -77.535156 132.507812 -79.851562 135.570312 -82.25 138.59375 C -84.65625 141.613281 -87.195312 144.5 -89.875 147.25 C -91.914062 149.300781 -94.191406 151.078125 -96.703125 152.578125 C -98.035156 153.429688 -99.566406 153.953125 -101.296875 154.140625 Z M -101.484375 149.390625 C -100.796875 149.117188 -100.128906 148.867188 -99.484375 148.640625 C -98.835938 148.421875 -98.285156 148.082031 -97.828125 147.625 C -96.804688 146.6875 -95.695312 145.769531 -94.5 144.875 C -93.3125 143.976562 -92.210938 142.972656 -91.203125 141.859375 C -87.691406 138.191406 -84.453125 134.332031 -81.484375 130.28125 C -78.523438 126.238281 -75.6875 122.070312 -72.96875 117.78125 C -68.0625 109.882812 -63.128906 101.929688 -58.171875 93.921875 C -53.222656 85.921875 -48.78125 77.71875 -44.84375 69.3125 C -40.90625 60.90625 -37.976562 52.1875 -36.0625 43.15625 L -35.734375 41.90625 L -36.203125 41.796875 L -37.03125 42.640625 C -43.570312 50.722656 -50.171875 58.671875 -56.828125 66.484375 C -63.492188 74.304688 -69.757812 82.476562 -75.625 91 C -79.007812 95.875 -82.3125 100.8125 -85.53125 105.8125 C -88.75 110.8125 -91.769531 115.96875 -94.59375 121.28125 C -95.976562 123.789062 -97.28125 126.3125 -98.5 128.84375 C -99.71875 131.382812 -100.738281 134.082031 -101.5625 136.9375 C -101.851562 138.101562 -102.1875 139.316406 -102.5625 140.578125 C -102.945312 141.847656 -103.222656 143.160156 -103.390625 144.515625 C -103.421875 145.128906 -103.398438 145.765625 -103.328125 146.421875 C -103.253906 147.085938 -103.179688 147.773438 -103.109375 148.484375 C -103.066406 148.890625 -102.859375 149.175781 -102.484375 149.34375 C -102.117188 149.507812 -101.785156 149.523438 -101.484375 149.390625 Z M -101.484375 149.390625 "/></g></g><g transform="translate(290.190936, 308.578342)"><g><path d="M 2.34375 57.4375 C 2.007812 57.164062 1.695312 56.863281 1.40625 56.53125 C 1.113281 56.195312 0.945312 55.832031 0.90625 55.4375 L 0.6875 54.84375 C 0.65625 54.53125 0.648438 54.21875 0.671875 53.90625 C 0.691406 53.601562 0.738281 53.289062 0.8125 52.96875 C 1.125 51.195312 1.472656 49.441406 1.859375 47.703125 C 2.242188 45.972656 2.648438 44.265625 3.078125 42.578125 C 4.742188 35.941406 6.664062 29.351562 8.84375 22.8125 C 11.03125 16.28125 13.222656 9.773438 15.421875 3.296875 C 20.304688 -10.648438 25.222656 -24.570312 30.171875 -38.46875 C 35.128906 -52.375 40.320312 -66.171875 45.75 -79.859375 L 50.71875 -92.53125 L 50.109375 -92.46875 C 49.742188 -92.019531 49.453125 -91.601562 49.234375 -91.21875 C 49.023438 -90.84375 48.785156 -90.4375 48.515625 -90 C 44.023438 -82.96875 39.59375 -75.863281 35.21875 -68.6875 C 30.851562 -61.507812 26.265625 -54.488281 21.453125 -47.625 L 17.703125 -42.3125 C 17.890625 -41.394531 18.109375 -40.488281 18.359375 -39.59375 C 18.617188 -38.695312 18.789062 -37.847656 18.875 -37.046875 L 18.90625 -36.734375 C 19 -35.816406 18.703125 -35.171875 18.015625 -34.796875 C 17.640625 -34.554688 17.351562 -34.425781 17.15625 -34.40625 C 16.738281 -34.363281 16.25 -34.566406 15.6875 -35.015625 L 14.703125 -35.84375 C 14.023438 -36.394531 13.363281 -36.269531 12.71875 -35.46875 L 11.25 -33.484375 C 9.007812 -30.378906 6.628906 -27.410156 4.109375 -24.578125 C 1.585938 -21.742188 -1.007812 -18.957031 -3.6875 -16.21875 C -4.4375 -15.425781 -5.238281 -14.703125 -6.09375 -14.046875 C -6.945312 -13.390625 -7.796875 -12.707031 -8.640625 -12 C -9.015625 -11.664062 -9.5 -11.363281 -10.09375 -11.09375 C -10.6875 -10.820312 -11.21875 -10.554688 -11.6875 -10.296875 C -12.78125 -9.878906 -13.789062 -9.925781 -14.71875 -10.4375 C -15.644531 -10.957031 -16.171875 -11.832031 -16.296875 -13.0625 C -16.410156 -14.164062 -16.285156 -15.410156 -15.921875 -16.796875 C -15.304688 -18.890625 -14.597656 -20.953125 -13.796875 -22.984375 C -12.234375 -26.753906 -10.421875 -30.28125 -8.359375 -33.5625 C -6.304688 -36.851562 -4.007812 -40.070312 -1.46875 -43.21875 C -0.832031 -44 -0.167969 -44.757812 0.515625 -45.5 C 1.210938 -46.238281 1.984375 -46.957031 2.828125 -47.65625 C 3.492188 -48.238281 4.1875 -48.773438 4.90625 -49.265625 C 5.625 -49.753906 6.390625 -50.039062 7.203125 -50.125 C 7.492188 -50.15625 7.765625 -50.207031 8.015625 -50.28125 C 8.265625 -50.363281 8.546875 -50.421875 8.859375 -50.453125 C 9.671875 -50.535156 10.453125 -50.410156 11.203125 -50.078125 C 11.953125 -49.753906 12.710938 -49.269531 13.484375 -48.625 C 14.148438 -48.1875 14.726562 -47.582031 15.21875 -46.8125 C 15.800781 -47.175781 16.21875 -47.601562 16.46875 -48.09375 C 16.726562 -48.582031 17.039062 -49.050781 17.40625 -49.5 C 20.78125 -54.46875 24.097656 -59.457031 27.359375 -64.46875 C 30.628906 -69.476562 33.898438 -74.515625 37.171875 -79.578125 C 42.109375 -87.171875 46.78125 -94.863281 51.1875 -102.65625 C 55.601562 -110.445312 60.070312 -118.171875 64.59375 -125.828125 C 65.113281 -126.703125 65.601562 -127.625 66.0625 -128.59375 C 66.53125 -129.5625 66.972656 -130.523438 67.390625 -131.484375 C 74.367188 -146.992188 81.5625 -162.414062 88.96875 -177.75 C 96.382812 -193.082031 104.335938 -208.125 112.828125 -222.875 C 113.878906 -224.71875 114.875 -226.535156 115.8125 -228.328125 C 116.75 -230.117188 117.796875 -231.847656 118.953125 -233.515625 C 119.398438 -234.171875 119.894531 -234.804688 120.4375 -235.421875 C 120.988281 -236.046875 121.484375 -236.738281 121.921875 -237.5 C 122.429688 -238.375 122.992188 -238.84375 123.609375 -238.90625 L 124.375 -239 C 125.789062 -239.144531 126.566406 -238.5625 126.703125 -237.25 C 126.828125 -236.125 126.6875 -235.03125 126.28125 -233.96875 C 125.882812 -232.894531 125.4375 -231.796875 124.9375 -230.671875 C 124.4375 -229.546875 123.9375 -228.441406 123.4375 -227.359375 C 120.90625 -222.171875 118.347656 -216.976562 115.765625 -211.78125 C 113.179688 -206.59375 110.570312 -201.445312 107.9375 -196.34375 C 101.726562 -184.21875 95.316406 -172.269531 88.703125 -160.5 C 82.097656 -148.726562 75.519531 -136.910156 68.96875 -125.046875 C 68.039062 -123.316406 67.234375 -121.75 66.546875 -120.34375 C 55.421875 -96.40625 45.441406 -72.050781 36.609375 -47.28125 C 27.785156 -22.519531 19.3125 2.382812 11.1875 27.4375 C 10.257812 30.300781 9.40625 33.15625 8.625 36 C 7.851562 38.851562 7.050781 41.707031 6.21875 44.5625 C 5.695312 46.457031 5.226562 48.375 4.8125 50.3125 C 4.40625 52.25 4.3125 54.234375 4.53125 56.265625 C 4.582031 56.773438 4.34375 57.1875 3.8125 57.5 C 3.28125 57.8125 2.789062 57.789062 2.34375 57.4375 Z M 50.859375 -92.6875 L 51 -92.859375 L 50.953125 -93.3125 C 50.765625 -93.09375 50.671875 -92.984375 50.671875 -92.984375 C 50.691406 -92.773438 50.753906 -92.675781 50.859375 -92.6875 Z M -11.296875 -15.265625 C -9.859375 -16.242188 -8.050781 -17.820312 -5.875 -20 C -3.695312 -22.175781 -1.417969 -24.640625 0.953125 -27.390625 C 3.328125 -30.148438 5.523438 -32.894531 7.546875 -35.625 C 9.578125 -38.351562 11.15625 -40.703125 12.28125 -42.671875 C 12.144531 -42.953125 12.03125 -43.265625 11.9375 -43.609375 C 11.851562 -43.960938 11.691406 -44.285156 11.453125 -44.578125 C 10.722656 -45.722656 9.953125 -46.253906 9.140625 -46.171875 C 8.929688 -46.148438 8.703125 -46.097656 8.453125 -46.015625 C 8.203125 -45.941406 7.9375 -45.835938 7.65625 -45.703125 C 6.664062 -45.296875 5.894531 -44.804688 5.34375 -44.234375 C 4.789062 -43.765625 4.226562 -43.269531 3.65625 -42.75 C 3.09375 -42.226562 2.585938 -41.691406 2.140625 -41.140625 C -0.261719 -38.628906 -2.40625 -35.835938 -4.28125 -32.765625 C -6.164062 -29.691406 -7.816406 -26.550781 -9.234375 -23.34375 C -9.710938 -22.257812 -10.175781 -21.15625 -10.625 -20.03125 C -11.082031 -18.90625 -11.457031 -17.769531 -11.75 -16.625 C -11.820312 -16.394531 -11.867188 -16.148438 -11.890625 -15.890625 C -11.921875 -15.628906 -11.722656 -15.421875 -11.296875 -15.265625 Z M -11.296875 -15.265625 "/></g></g><g transform="translate(366.247192, 300.584508)"><g><path d="M 11.984375 -67.390625 C 11.015625 -67.910156 10.617188 -68.796875 10.796875 -70.046875 C 10.890625 -71.066406 11.0625 -72.078125 11.3125 -73.078125 C 11.5625 -74.078125 11.953125 -75.019531 12.484375 -75.90625 C 13.085938 -76.882812 13.941406 -77.53125 15.046875 -77.84375 C 16.023438 -78.164062 16.867188 -77.898438 17.578125 -77.046875 C 18.296875 -76.203125 18.488281 -75.351562 18.15625 -74.5 C 17.46875 -72.28125 16.257812 -70.101562 14.53125 -67.96875 C 13.8125 -67.070312 12.960938 -66.878906 11.984375 -67.390625 Z M 5.546875 -15.96875 C 4.535156 -15.863281 3.539062 -15.804688 2.5625 -15.796875 C 1.59375 -15.796875 0.640625 -15.898438 -0.296875 -16.109375 C -5.128906 -17.148438 -7.804688 -20.148438 -8.328125 -25.109375 C -8.441406 -26.222656 -8.425781 -27.300781 -8.28125 -28.34375 C -8.132812 -29.382812 -7.960938 -30.429688 -7.765625 -31.484375 C -7.566406 -32.421875 -7.332031 -33.335938 -7.0625 -34.234375 C -6.789062 -35.140625 -6.5 -36.023438 -6.1875 -36.890625 C -5.3125 -39.335938 -4.21875 -41.675781 -2.90625 -43.90625 C -1.601562 -46.144531 -0.414062 -48.445312 0.65625 -50.8125 C 0.8125 -51.25 1.023438 -51.632812 1.296875 -51.96875 C 1.566406 -52.300781 1.835938 -52.640625 2.109375 -52.984375 C 2.566406 -53.535156 3.15625 -53.847656 3.875 -53.921875 C 4.082031 -53.953125 4.289062 -53.925781 4.5 -53.84375 C 4.707031 -53.757812 4.914062 -53.675781 5.125 -53.59375 C 5.75 -53.5625 6.109375 -53.085938 6.203125 -52.171875 C 6.242188 -51.765625 6.148438 -51.242188 5.921875 -50.609375 L 5.53125 -49.8125 C 4.53125 -47.644531 3.554688 -45.640625 2.609375 -43.796875 L 2.390625 -43.3125 C 0.898438 -41.726562 -0.175781 -39.953125 -0.84375 -37.984375 C -1.507812 -36.015625 -2.144531 -34.023438 -2.75 -32.015625 C -3.050781 -30.953125 -3.269531 -29.875 -3.40625 -28.78125 C -3.550781 -27.6875 -3.566406 -26.585938 -3.453125 -25.484375 C -3.296875 -23.960938 -2.753906 -22.734375 -1.828125 -21.796875 C -0.910156 -20.867188 0.359375 -20.492188 1.984375 -20.671875 C 2.484375 -20.722656 3.015625 -20.75 3.578125 -20.75 C 4.148438 -20.757812 4.6875 -20.789062 5.1875 -20.84375 C 6.3125 -20.957031 7.472656 -21.15625 8.671875 -21.4375 C 9.867188 -21.726562 11.003906 -22.132812 12.078125 -22.65625 C 15.515625 -24.132812 18.675781 -25.695312 21.5625 -27.34375 C 24.96875 -29.21875 28.21875 -31.269531 31.3125 -33.5 C 34.40625 -35.726562 37.539062 -37.832031 40.71875 -39.8125 C 41.300781 -40.175781 41.875 -40.59375 42.4375 -41.0625 C 43 -41.53125 43.453125 -42.09375 43.796875 -42.75 C 44.335938 -43.507812 44.90625 -43.925781 45.5 -44 C 45.707031 -44.019531 45.941406 -43.992188 46.203125 -43.921875 C 46.472656 -43.847656 46.769531 -43.726562 47.09375 -43.5625 C 47.738281 -43.320312 48.125 -42.640625 48.25 -41.515625 C 48.257812 -41.410156 48.300781 -41.234375 48.375 -40.984375 C 48.457031 -40.742188 48.40625 -40.515625 48.21875 -40.296875 C 47.882812 -39.535156 47.523438 -39.035156 47.140625 -38.796875 C 46.765625 -38.441406 46.441406 -38.097656 46.171875 -37.765625 C 45.898438 -37.429688 45.519531 -37.132812 45.03125 -36.875 C 40.601562 -34.15625 36.269531 -31.238281 32.03125 -28.125 C 27.789062 -25.019531 23.328125 -22.398438 18.640625 -20.265625 C 17.347656 -19.722656 16.019531 -19.144531 14.65625 -18.53125 C 13.289062 -17.925781 11.910156 -17.445312 10.515625 -17.09375 Z M 5.546875 -15.96875 "/></g></g></g><g fill="#ffffff" fill-opacity="1"><g transform="translate(416.444283, 295.308581)"><g/></g><g transform="translate(507.711788, 285.71598)"><g><path d="M 81.078125 -8.515625 C 78.035156 -8.203125 75.554688 -9.328125 73.640625 -11.890625 C 72.796875 -13.140625 72.125 -14.425781 71.625 -15.75 C 71.125 -17.082031 70.703125 -18.453125 70.359375 -19.859375 C 70.171875 -20.648438 70.015625 -21.375 69.890625 -22.03125 C 69.773438 -22.6875 69.675781 -23.367188 69.59375 -24.078125 C 69.40625 -25.898438 69.316406 -27.707031 69.328125 -29.5 C 69.347656 -31.300781 69.46875 -33.082031 69.6875 -34.84375 L 71.375 -48.109375 C 71.5 -48.941406 71.59375 -49.742188 71.65625 -50.515625 C 71.726562 -51.296875 71.726562 -52.039062 71.65625 -52.75 L 71.625 -53.0625 C 71.601562 -53.257812 71.550781 -53.484375 71.46875 -53.734375 C 71.394531 -53.984375 71.34375 -54.257812 71.3125 -54.5625 C 70.914062 -54.425781 70.566406 -54.3125 70.265625 -54.21875 C 69.972656 -54.132812 69.738281 -53.976562 69.5625 -53.75 C 68.800781 -53.15625 68.015625 -52.5625 67.203125 -51.96875 C 66.390625 -51.375 65.609375 -50.734375 64.859375 -50.046875 C 62.054688 -47.484375 59.3125 -44.828125 56.625 -42.078125 C 53.9375 -39.335938 51.25 -36.648438 48.5625 -34.015625 C 46.414062 -31.941406 44.273438 -29.816406 42.140625 -27.640625 C 40.015625 -25.472656 37.828125 -23.40625 35.578125 -21.4375 C 34.640625 -20.601562 33.664062 -19.878906 32.65625 -19.265625 C 31.644531 -18.648438 30.722656 -17.941406 29.890625 -17.140625 C 28.941406 -16.316406 27.757812 -15.828125 26.34375 -15.671875 C 25.332031 -15.566406 24.390625 -15.78125 23.515625 -16.3125 C 22.640625 -16.84375 22.148438 -17.613281 22.046875 -18.625 L 21.96875 -19.234375 C 21.914062 -19.742188 21.894531 -20.175781 21.90625 -20.53125 C 21.925781 -20.882812 21.96875 -21.269531 22.03125 -21.6875 C 22.332031 -22.65625 22.535156 -23.601562 22.640625 -24.53125 C 22.742188 -25.46875 22.957031 -26.359375 23.28125 -27.203125 C 24.53125 -30.921875 25.828125 -34.671875 27.171875 -38.453125 C 28.523438 -42.242188 29.820312 -45.992188 31.0625 -49.703125 L 33.734375 -57.984375 C 33.910156 -58.316406 34.003906 -58.660156 34.015625 -59.015625 C 34.035156 -59.367188 34.078125 -59.707031 34.140625 -60.03125 C 33.929688 -60.101562 33.675781 -60.125 33.375 -60.09375 C 33.164062 -60.070312 32.988281 -60.003906 32.84375 -59.890625 C 32.695312 -59.773438 32.535156 -59.65625 32.359375 -59.53125 C 28.890625 -57.320312 25.734375 -54.632812 22.890625 -51.46875 C 21.328125 -49.769531 19.757812 -48.09375 18.1875 -46.4375 C 16.625 -44.78125 15.066406 -43.050781 13.515625 -41.25 C 9.953125 -37.082031 6.425781 -32.816406 2.9375 -28.453125 C -0.550781 -24.085938 -4.125 -19.765625 -7.78125 -15.484375 C -9.800781 -13.222656 -11.734375 -10.921875 -13.578125 -8.578125 C -15.429688 -6.234375 -17.421875 -3.921875 -19.546875 -1.640625 C -19.910156 -1.191406 -20.304688 -0.789062 -20.734375 -0.4375 C -21.160156 -0.0820312 -21.609375 0.269531 -22.078125 0.625 C -22.359375 0.851562 -22.796875 1.101562 -23.390625 1.375 C -23.578125 1.5 -23.828125 1.578125 -24.140625 1.609375 C -25.660156 1.765625 -26.503906 1.082031 -26.671875 -0.4375 C -26.722656 -0.945312 -26.597656 -1.492188 -26.296875 -2.078125 C -25.992188 -2.671875 -25.710938 -3.1875 -25.453125 -3.625 C -24.765625 -4.925781 -24.023438 -6.207031 -23.234375 -7.46875 C -22.453125 -8.738281 -21.710938 -9.972656 -21.015625 -11.171875 C -17.003906 -17.953125 -13.257812 -24.78125 -9.78125 -31.65625 C -6.300781 -38.53125 -2.742188 -45.644531 0.890625 -53 C 2.835938 -56.894531 4.722656 -60.65625 6.546875 -64.28125 C 8.367188 -67.90625 10.160156 -71.601562 11.921875 -75.375 C 12.078125 -75.800781 12.289062 -76.207031 12.5625 -76.59375 C 12.832031 -76.976562 13.085938 -77.390625 13.328125 -77.828125 C 13.503906 -78.160156 13.757812 -78.445312 14.09375 -78.6875 C 14.4375 -78.925781 14.695312 -79.15625 14.875 -79.375 C 15.238281 -79.832031 15.773438 -80.097656 16.484375 -80.171875 C 17.191406 -80.242188 17.710938 -80.195312 18.046875 -80.03125 C 19.003906 -79.613281 19.550781 -78.796875 19.6875 -77.578125 C 19.769531 -76.765625 19.710938 -75.785156 19.515625 -74.640625 C 19.253906 -73.273438 18.882812 -71.925781 18.40625 -70.59375 C 17.9375 -69.269531 17.304688 -68.003906 16.515625 -66.796875 C 16.148438 -66.335938 15.785156 -65.859375 15.421875 -65.359375 C 15.054688 -64.867188 14.59375 -64.488281 14.03125 -64.21875 C 13.238281 -63.832031 12.722656 -63.320312 12.484375 -62.6875 L 11.375 -60.09375 C 8.96875 -54.613281 6.21875 -49.273438 3.125 -44.078125 C 0.0390625 -38.878906 -2.753906 -33.59375 -5.265625 -28.21875 L -6.40625 -25.78125 C -6.175781 -25.601562 -6.015625 -25.515625 -5.921875 -25.515625 L -4.015625 -27.875 C -1.097656 -31.457031 1.820312 -34.914062 4.75 -38.25 C 7.675781 -41.582031 10.597656 -44.945312 13.515625 -48.34375 C 17.546875 -52.957031 21.96875 -57.210938 26.78125 -61.109375 C 27.644531 -61.804688 28.554688 -62.460938 29.515625 -63.078125 C 30.472656 -63.703125 31.488281 -64.273438 32.5625 -64.796875 C 33.445312 -65.179688 34.34375 -65.421875 35.25 -65.515625 C 37.382812 -65.742188 38.554688 -64.84375 38.765625 -62.8125 L 38.8125 -62.375 C 38.914062 -61.351562 38.875 -60.269531 38.6875 -59.125 C 38.425781 -57.757812 38.082031 -56.4375 37.65625 -55.15625 C 37.226562 -53.882812 36.769531 -52.609375 36.28125 -51.328125 L 29.078125 -30.734375 C 28.691406 -29.472656 28.332031 -28.207031 28 -26.9375 C 27.675781 -25.675781 27.320312 -24.457031 26.9375 -23.28125 C 26.875 -22.863281 26.832031 -22.5 26.8125 -22.1875 C 26.789062 -21.875 26.742188 -21.566406 26.671875 -21.265625 C 27.128906 -20.910156 27.632812 -20.96875 28.1875 -21.4375 C 29.132812 -22.238281 30.082031 -23 31.03125 -23.71875 C 31.988281 -24.4375 32.882812 -25.191406 33.71875 -25.984375 C 39.25 -31.796875 44.957031 -37.472656 50.84375 -43.015625 C 52.988281 -44.992188 55.109375 -46.988281 57.203125 -49 C 59.304688 -51.007812 61.382812 -52.992188 63.4375 -54.953125 C 64.175781 -55.660156 64.953125 -56.257812 65.765625 -56.75 C 66.585938 -57.238281 67.328125 -57.773438 67.984375 -58.359375 C 68.753906 -58.953125 69.742188 -59.316406 70.953125 -59.453125 C 73.492188 -59.710938 75.148438 -58.597656 75.921875 -56.109375 C 76.066406 -55.710938 76.15625 -55.335938 76.1875 -54.984375 C 76.226562 -54.628906 76.269531 -54.25 76.3125 -53.84375 C 76.445312 -52.53125 76.441406 -51.144531 76.296875 -49.6875 C 76.117188 -47.414062 75.863281 -45.132812 75.53125 -42.84375 C 75.207031 -40.5625 74.914062 -38.273438 74.65625 -35.984375 C 74.488281 -34.640625 74.300781 -33.265625 74.09375 -31.859375 C 73.882812 -30.453125 73.851562 -29.039062 74 -27.625 C 74.0625 -27.007812 74.09375 -26.421875 74.09375 -25.859375 C 74.101562 -25.296875 74.144531 -24.710938 74.21875 -24.109375 C 74.40625 -22.273438 74.859375 -20.375 75.578125 -18.40625 C 75.859375 -17.71875 76.160156 -17.054688 76.484375 -16.421875 C 76.804688 -15.785156 77.148438 -15.179688 77.515625 -14.609375 C 78.242188 -13.453125 79.269531 -12.941406 80.59375 -13.078125 C 81.914062 -13.222656 83.25 -13.722656 84.59375 -14.578125 C 85.65625 -15.203125 86.640625 -15.84375 87.546875 -16.5 C 88.453125 -17.164062 89.332031 -17.851562 90.1875 -18.5625 C 94.707031 -22.3125 98.875 -26.539062 102.6875 -31.25 C 105.125 -34.269531 107.421875 -37.253906 109.578125 -40.203125 C 111.734375 -43.148438 114.210938 -46.359375 117.015625 -49.828125 L 117.984375 -51.015625 C 118.703125 -51.898438 119.554688 -52.035156 120.546875 -51.421875 C 121.523438 -50.804688 121.929688 -49.925781 121.765625 -48.78125 C 121.691406 -48.46875 121.484375 -47.988281 121.140625 -47.34375 C 120.960938 -47.007812 120.765625 -46.675781 120.546875 -46.34375 C 120.328125 -46.007812 120.078125 -45.679688 119.796875 -45.359375 L 104.03125 -25.859375 C 102.300781 -23.734375 100.441406 -21.640625 98.453125 -19.578125 C 96.460938 -17.523438 94.320312 -15.65625 92.03125 -13.96875 C 90.988281 -13.15625 89.914062 -12.40625 88.8125 -11.71875 C 87.707031 -11.03125 86.523438 -10.367188 85.265625 -9.734375 C 83.796875 -9.066406 82.398438 -8.660156 81.078125 -8.515625 Z M 81.078125 -8.515625 "/></g></g></g><g fill="#ffffff" fill-opacity="1"><g transform="translate(631.531396, 272.702016)"><g><path d="M 10.03125 -9.984375 C 7.695312 -9.734375 5.332031 -9.796875 2.9375 -10.171875 C -0.519531 -10.722656 -3.3125 -12.09375 -5.4375 -14.28125 C -7.5625 -16.46875 -8.800781 -19.234375 -9.15625 -22.578125 C -9.363281 -24.609375 -9.265625 -26.664062 -8.859375 -28.75 C -8.460938 -30.84375 -7.90625 -32.847656 -7.1875 -34.765625 C -4.601562 -41.390625 -0.742188 -47.128906 4.390625 -51.984375 C 4.929688 -52.554688 5.488281 -53.050781 6.0625 -53.46875 C 6.644531 -53.882812 7.273438 -54.226562 7.953125 -54.5 C 8.546875 -54.769531 9.046875 -54.925781 9.453125 -54.96875 C 11.585938 -55.195312 12.773438 -54.144531 13.015625 -51.8125 C 13.179688 -50.289062 12.925781 -48.78125 12.25 -47.28125 C 9.21875 -40.09375 4.375 -34.503906 -2.28125 -30.515625 L -4.171875 -29.40625 C -4.679688 -27.507812 -4.832031 -25.546875 -4.625 -23.515625 C -4.175781 -19.253906 -2.082031 -16.453125 1.65625 -15.109375 C 2.5 -14.773438 3.359375 -14.578125 4.234375 -14.515625 C 5.117188 -14.453125 5.972656 -14.410156 6.796875 -14.390625 C 9.453125 -14.472656 12 -14.847656 14.4375 -15.515625 C 16.882812 -16.179688 19.226562 -17.09375 21.46875 -18.25 C 27.300781 -21.21875 32.726562 -24.65625 37.75 -28.5625 C 42.78125 -32.476562 47.394531 -36.859375 51.59375 -41.703125 C 51.851562 -42.148438 52.09375 -42.566406 52.3125 -42.953125 C 52.53125 -43.335938 52.828125 -43.703125 53.203125 -44.046875 C 53.648438 -44.703125 54.222656 -45.066406 54.921875 -45.140625 C 55.429688 -45.191406 55.90625 -45.085938 56.34375 -44.828125 C 57.113281 -44.296875 57.535156 -43.671875 57.609375 -42.953125 C 57.660156 -42.546875 57.554688 -42.078125 57.296875 -41.546875 C 56.617188 -40.242188 55.90625 -39.25 55.15625 -38.5625 C 50.988281 -34.332031 46.644531 -30.3125 42.125 -26.5 C 37.601562 -22.695312 32.738281 -19.234375 27.53125 -16.109375 C 25.976562 -15.234375 24.347656 -14.394531 22.640625 -13.59375 C 20.929688 -12.800781 19.179688 -12.113281 17.390625 -11.53125 C 16.203125 -11.195312 14.976562 -10.882812 13.71875 -10.59375 C 12.46875 -10.3125 11.238281 -10.109375 10.03125 -9.984375 Z M -0.453125 -37.953125 C 0.898438 -38.703125 2.34375 -40.078125 3.875 -42.078125 C 5.40625 -44.085938 6.488281 -46 7.125 -47.8125 C 5.875 -46.96875 4.460938 -45.488281 2.890625 -43.375 C 1.316406 -41.257812 0.199219 -39.453125 -0.453125 -37.953125 Z M -0.453125 -37.953125 "/></g></g></g><g fill="#ffffff" fill-opacity="1"><g transform="translate(691.159474, 266.434853)"><g><path d="M -17.703125 1.40625 C -18.804688 1.519531 -19.742188 1.28125 -20.515625 0.6875 C -21.296875 0.101562 -21.742188 -0.695312 -21.859375 -1.71875 C -21.910156 -2.207031 -21.820312 -2.773438 -21.59375 -3.421875 C -21.351562 -4.066406 -21.132812 -4.679688 -20.9375 -5.265625 C -20.738281 -5.847656 -20.507812 -6.410156 -20.25 -6.953125 C -18.175781 -11.578125 -15.992188 -16.160156 -13.703125 -20.703125 C -11.410156 -25.253906 -9.128906 -29.851562 -6.859375 -34.5 C 0.167969 -48.664062 7.226562 -62.757812 14.3125 -76.78125 C 21.40625 -90.800781 28.460938 -104.847656 35.484375 -118.921875 C 42.265625 -132.453125 48.910156 -146.066406 55.421875 -159.765625 C 61.929688 -173.472656 68.675781 -187.054688 75.65625 -200.515625 C 75.914062 -201.046875 76.171875 -201.554688 76.421875 -202.046875 C 76.679688 -202.535156 76.890625 -203.046875 77.046875 -203.578125 C 77.328125 -204.628906 77.648438 -205.609375 78.015625 -206.515625 C 78.390625 -207.421875 78.992188 -208.28125 79.828125 -209.09375 C 80.117188 -209.320312 80.34375 -209.648438 80.5 -210.078125 C 80.65625 -210.515625 80.8125 -210.945312 80.96875 -211.375 L 96.734375 -242.859375 C 97.148438 -243.828125 97.644531 -244.75 98.21875 -245.625 C 98.789062 -246.507812 99.335938 -247.390625 99.859375 -248.265625 C 100.640625 -249.566406 101.539062 -250.269531 102.5625 -250.375 C 103.175781 -250.445312 103.910156 -250.269531 104.765625 -249.84375 C 106.160156 -249.28125 106.953125 -248.132812 107.140625 -246.40625 C 107.210938 -245.695312 107.128906 -245.019531 106.890625 -244.375 C 106.398438 -243.101562 105.628906 -242.15625 104.578125 -241.53125 C 103.492188 -241.007812 102.664062 -240.304688 102.09375 -239.421875 C 101.53125 -238.535156 100.992188 -237.554688 100.484375 -236.484375 C 98.316406 -231.835938 96.003906 -227.3125 93.546875 -222.90625 C 91.085938 -218.5 88.601562 -214.0625 86.09375 -209.59375 L 85.4375 -208.4375 C 84.320312 -206.375 83.125 -204.378906 81.84375 -202.453125 C 80.5625 -200.523438 79.414062 -198.484375 78.40625 -196.328125 C 72.09375 -183.160156 65.65625 -170.03125 59.09375 -156.9375 C 52.53125 -143.84375 45.992188 -130.695312 39.484375 -117.5 C 32.796875 -104.082031 26.035156 -90.601562 19.203125 -77.0625 C 12.378906 -63.519531 5.566406 -49.988281 -1.234375 -36.46875 C -3.609375 -31.820312 -5.925781 -27.097656 -8.1875 -22.296875 C -10.445312 -17.492188 -12.8125 -12.707031 -15.28125 -7.9375 C -15.550781 -7.5 -15.804688 -6.984375 -16.046875 -6.390625 C -16.285156 -5.796875 -16.363281 -5.097656 -16.28125 -4.296875 C -15.519531 -4.785156 -14.832031 -5.289062 -14.21875 -5.8125 C -13.613281 -6.332031 -13.078125 -6.820312 -12.609375 -7.28125 C -9.210938 -11.019531 -5.820312 -14.863281 -2.4375 -18.8125 C 0.832031 -22.738281 4.144531 -26.570312 7.5 -30.3125 C 10.851562 -34.050781 14.289062 -37.691406 17.8125 -41.234375 C 18.925781 -42.390625 20.015625 -43.484375 21.078125 -44.515625 C 22.140625 -45.546875 23.296875 -46.535156 24.546875 -47.484375 C 25.097656 -47.960938 25.710938 -48.390625 26.390625 -48.765625 C 27.078125 -49.140625 27.773438 -49.363281 28.484375 -49.4375 C 30.921875 -49.695312 32.257812 -48.710938 32.5 -46.484375 L 32.625 -45.265625 C 32.6875 -44.660156 32.722656 -44.046875 32.734375 -43.421875 C 32.742188 -42.804688 32.726562 -42.195312 32.6875 -41.59375 C 32.664062 -39.945312 32.507812 -38.257812 32.21875 -36.53125 C 31.9375 -34.800781 31.6875 -33.054688 31.46875 -31.296875 C 31.019531 -27.765625 30.953125 -24.476562 31.265625 -21.4375 C 31.378906 -20.414062 31.5625 -19.429688 31.8125 -18.484375 C 32.0625 -17.535156 32.238281 -16.554688 32.34375 -15.546875 C 32.382812 -15.140625 32.46875 -14.84375 32.59375 -14.65625 C 33.34375 -13.5 34.050781 -12.648438 34.71875 -12.109375 C 35.382812 -11.566406 36.28125 -11.351562 37.40625 -11.46875 C 38.820312 -11.613281 40.109375 -12.003906 41.265625 -12.640625 C 42.429688 -13.285156 43.484375 -14.007812 44.421875 -14.8125 C 46.972656 -16.832031 49.460938 -18.96875 51.890625 -21.21875 C 54.328125 -23.46875 56.484375 -25.972656 58.359375 -28.734375 C 59.773438 -30.734375 61.144531 -32.75 62.46875 -34.78125 C 63.789062 -36.8125 65.0625 -38.867188 66.28125 -40.953125 C 66.632812 -41.503906 66.9375 -42.070312 67.1875 -42.65625 C 67.4375 -43.25 67.679688 -43.816406 67.921875 -44.359375 C 68.429688 -45.335938 69.144531 -45.875 70.0625 -45.96875 C 71.582031 -46.132812 72.421875 -45.503906 72.578125 -44.078125 C 72.609375 -43.773438 72.585938 -43.46875 72.515625 -43.15625 C 72.453125 -42.84375 72.382812 -42.53125 72.3125 -42.21875 C 72.238281 -41.894531 72.03125 -41.398438 71.6875 -40.734375 C 67.5 -32.816406 62.359375 -25.671875 56.265625 -19.296875 C 54.867188 -17.804688 53.46875 -16.453125 52.0625 -15.234375 C 50.664062 -14.015625 49.210938 -12.757812 47.703125 -11.46875 C 46.753906 -10.65625 45.703125 -9.878906 44.546875 -9.140625 C 43.398438 -8.410156 42.175781 -7.875 40.875 -7.53125 C 40.5 -7.382812 40.054688 -7.257812 39.546875 -7.15625 C 39.046875 -7.050781 38.539062 -6.972656 38.03125 -6.921875 C 33.570312 -6.453125 30.472656 -8.179688 28.734375 -12.109375 C 27.773438 -14.253906 27.15625 -16.691406 26.875 -19.421875 C 26.53125 -22.660156 26.570312 -25.867188 27 -29.046875 C 27.4375 -32.234375 27.800781 -35.429688 28.09375 -38.640625 L 28.421875 -42.671875 C 28.503906 -42.878906 28.503906 -43.109375 28.421875 -43.359375 C 28.347656 -43.609375 28.289062 -43.9375 28.25 -44.34375 C 27.5625 -44.070312 26.976562 -43.726562 26.5 -43.3125 C 26.03125 -42.90625 25.570312 -42.472656 25.125 -42.015625 C 22.820312 -39.515625 20.488281 -37.066406 18.125 -34.671875 C 15.757812 -32.273438 13.429688 -29.769531 11.140625 -27.15625 C 8.304688 -23.875 5.421875 -20.597656 2.484375 -17.328125 C -0.449219 -14.054688 -3.382812 -10.773438 -6.3125 -7.484375 C -7.238281 -6.472656 -8.191406 -5.5 -9.171875 -4.5625 C -10.148438 -3.632812 -11.101562 -2.71875 -12.03125 -1.8125 C -12.5 -1.351562 -13.019531 -0.960938 -13.59375 -0.640625 C -14.175781 -0.328125 -14.753906 0.0546875 -15.328125 0.515625 C -15.984375 1.003906 -16.773438 1.300781 -17.703125 1.40625 Z M -17.703125 1.40625 "/></g></g></g><g fill="#ffffff" fill-opacity="1"><g transform="translate(765.390422, 258.632866)"><g><path d="M 2.34375 57.4375 C 2.007812 57.164062 1.695312 56.863281 1.40625 56.53125 C 1.113281 56.195312 0.945312 55.832031 0.90625 55.4375 L 0.6875 54.84375 C 0.65625 54.53125 0.648438 54.21875 0.671875 53.90625 C 0.691406 53.601562 0.738281 53.289062 0.8125 52.96875 C 1.125 51.195312 1.472656 49.441406 1.859375 47.703125 C 2.242188 45.972656 2.648438 44.265625 3.078125 42.578125 C 4.742188 35.941406 6.664062 29.351562 8.84375 22.8125 C 11.03125 16.28125 13.222656 9.773438 15.421875 3.296875 C 20.304688 -10.648438 25.222656 -24.570312 30.171875 -38.46875 C 35.128906 -52.375 40.320312 -66.171875 45.75 -79.859375 L 50.71875 -92.53125 L 50.109375 -92.46875 C 49.742188 -92.019531 49.453125 -91.601562 49.234375 -91.21875 C 49.023438 -90.84375 48.785156 -90.4375 48.515625 -90 C 44.023438 -82.96875 39.59375 -75.863281 35.21875 -68.6875 C 30.851562 -61.507812 26.265625 -54.488281 21.453125 -47.625 L 17.703125 -42.3125 C 17.890625 -41.394531 18.109375 -40.488281 18.359375 -39.59375 C 18.617188 -38.695312 18.789062 -37.847656 18.875 -37.046875 L 18.90625 -36.734375 C 19 -35.816406 18.703125 -35.171875 18.015625 -34.796875 C 17.640625 -34.554688 17.351562 -34.425781 17.15625 -34.40625 C 16.738281 -34.363281 16.25 -34.566406 15.6875 -35.015625 L 14.703125 -35.84375 C 14.023438 -36.394531 13.363281 -36.269531 12.71875 -35.46875 L 11.25 -33.484375 C 9.007812 -30.378906 6.628906 -27.410156 4.109375 -24.578125 C 1.585938 -21.742188 -1.007812 -18.957031 -3.6875 -16.21875 C -4.4375 -15.425781 -5.238281 -14.703125 -6.09375 -14.046875 C -6.945312 -13.390625 -7.796875 -12.707031 -8.640625 -12 C -9.015625 -11.664062 -9.5 -11.363281 -10.09375 -11.09375 C -10.6875 -10.820312 -11.21875 -10.554688 -11.6875 -10.296875 C -12.78125 -9.878906 -13.789062 -9.925781 -14.71875 -10.4375 C -15.644531 -10.957031 -16.171875 -11.832031 -16.296875 -13.0625 C -16.410156 -14.164062 -16.285156 -15.410156 -15.921875 -16.796875 C -15.304688 -18.890625 -14.597656 -20.953125 -13.796875 -22.984375 C -12.234375 -26.753906 -10.421875 -30.28125 -8.359375 -33.5625 C -6.304688 -36.851562 -4.007812 -40.070312 -1.46875 -43.21875 C -0.832031 -44 -0.167969 -44.757812 0.515625 -45.5 C 1.210938 -46.238281 1.984375 -46.957031 2.828125 -47.65625 C 3.492188 -48.238281 4.1875 -48.773438 4.90625 -49.265625 C 5.625 -49.753906 6.390625 -50.039062 7.203125 -50.125 C 7.492188 -50.15625 7.765625 -50.207031 8.015625 -50.28125 C 8.265625 -50.363281 8.546875 -50.421875 8.859375 -50.453125 C 9.671875 -50.535156 10.453125 -50.410156 11.203125 -50.078125 C 11.953125 -49.753906 12.710938 -49.269531 13.484375 -48.625 C 14.148438 -48.1875 14.726562 -47.582031 15.21875 -46.8125 C 15.800781 -47.175781 16.21875 -47.601562 16.46875 -48.09375 C 16.726562 -48.582031 17.039062 -49.050781 17.40625 -49.5 C 20.78125 -54.46875 24.097656 -59.457031 27.359375 -64.46875 C 30.628906 -69.476562 33.898438 -74.515625 37.171875 -79.578125 C 42.109375 -87.171875 46.78125 -94.863281 51.1875 -102.65625 C 55.601562 -110.445312 60.070312 -118.171875 64.59375 -125.828125 C 65.113281 -126.703125 65.601562 -127.625 66.0625 -128.59375 C 66.53125 -129.5625 66.972656 -130.523438 67.390625 -131.484375 C 74.367188 -146.992188 81.5625 -162.414062 88.96875 -177.75 C 96.382812 -193.082031 104.335938 -208.125 112.828125 -222.875 C 113.878906 -224.71875 114.875 -226.535156 115.8125 -228.328125 C 116.75 -230.117188 117.796875 -231.847656 118.953125 -233.515625 C 119.398438 -234.171875 119.894531 -234.804688 120.4375 -235.421875 C 120.988281 -236.046875 121.484375 -236.738281 121.921875 -237.5 C 122.429688 -238.375 122.992188 -238.84375 123.609375 -238.90625 L 124.375 -239 C 125.789062 -239.144531 126.566406 -238.5625 126.703125 -237.25 C 126.828125 -236.125 126.6875 -235.03125 126.28125 -233.96875 C 125.882812 -232.894531 125.4375 -231.796875 124.9375 -230.671875 C 124.4375 -229.546875 123.9375 -228.441406 123.4375 -227.359375 C 120.90625 -222.171875 118.347656 -216.976562 115.765625 -211.78125 C 113.179688 -206.59375 110.570312 -201.445312 107.9375 -196.34375 C 101.726562 -184.21875 95.316406 -172.269531 88.703125 -160.5 C 82.097656 -148.726562 75.519531 -136.910156 68.96875 -125.046875 C 68.039062 -123.316406 67.234375 -121.75 66.546875 -120.34375 C 55.421875 -96.40625 45.441406 -72.050781 36.609375 -47.28125 C 27.785156 -22.519531 19.3125 2.382812 11.1875 27.4375 C 10.257812 30.300781 9.40625 33.15625 8.625 36 C 7.851562 38.851562 7.050781 41.707031 6.21875 44.5625 C 5.695312 46.457031 5.226562 48.375 4.8125 50.3125 C 4.40625 52.25 4.3125 54.234375 4.53125 56.265625 C 4.582031 56.773438 4.34375 57.1875 3.8125 57.5 C 3.28125 57.8125 2.789062 57.789062 2.34375 57.4375 Z M 50.859375 -92.6875 L 51 -92.859375 L 50.953125 -93.3125 C 50.765625 -93.09375 50.671875 -92.984375 50.671875 -92.984375 C 50.691406 -92.773438 50.753906 -92.675781 50.859375 -92.6875 Z M -11.296875 -15.265625 C -9.859375 -16.242188 -8.050781 -17.820312 -5.875 -20 C -3.695312 -22.175781 -1.417969 -24.640625 0.953125 -27.390625 C 3.328125 -30.148438 5.523438 -32.894531 7.546875 -35.625 C 9.578125 -38.351562 11.15625 -40.703125 12.28125 -42.671875 C 12.144531 -42.953125 12.03125 -43.265625 11.9375 -43.609375 C 11.851562 -43.960938 11.691406 -44.285156 11.453125 -44.578125 C 10.722656 -45.722656 9.953125 -46.253906 9.140625 -46.171875 C 8.929688 -46.148438 8.703125 -46.097656 8.453125 -46.015625 C 8.203125 -45.941406 7.9375 -45.835938 7.65625 -45.703125 C 6.664062 -45.296875 5.894531 -44.804688 5.34375 -44.234375 C 4.789062 -43.765625 4.226562 -43.269531 3.65625 -42.75 C 3.09375 -42.226562 2.585938 -41.691406 2.140625 -41.140625 C -0.261719 -38.628906 -2.40625 -35.835938 -4.28125 -32.765625 C -6.164062 -29.691406 -7.816406 -26.550781 -9.234375 -23.34375 C -9.710938 -22.257812 -10.175781 -21.15625 -10.625 -20.03125 C -11.082031 -18.90625 -11.457031 -17.769531 -11.75 -16.625 C -11.820312 -16.394531 -11.867188 -16.148438 -11.890625 -15.890625 C -11.921875 -15.628906 -11.722656 -15.421875 -11.296875 -15.265625 Z M -11.296875 -15.265625 "/></g></g><g transform="translate(841.446678, 250.639032)"><g><path d="M 11.984375 -67.390625 C 11.015625 -67.910156 10.617188 -68.796875 10.796875 -70.046875 C 10.890625 -71.066406 11.0625 -72.078125 11.3125 -73.078125 C 11.5625 -74.078125 11.953125 -75.019531 12.484375 -75.90625 C 13.085938 -76.882812 13.941406 -77.53125 15.046875 -77.84375 C 16.023438 -78.164062 16.867188 -77.898438 17.578125 -77.046875 C 18.296875 -76.203125 18.488281 -75.351562 18.15625 -74.5 C 17.46875 -72.28125 16.257812 -70.101562 14.53125 -67.96875 C 13.8125 -67.070312 12.960938 -66.878906 11.984375 -67.390625 Z M 5.546875 -15.96875 C 4.535156 -15.863281 3.539062 -15.804688 2.5625 -15.796875 C 1.59375 -15.796875 0.640625 -15.898438 -0.296875 -16.109375 C -5.128906 -17.148438 -7.804688 -20.148438 -8.328125 -25.109375 C -8.441406 -26.222656 -8.425781 -27.300781 -8.28125 -28.34375 C -8.132812 -29.382812 -7.960938 -30.429688 -7.765625 -31.484375 C -7.566406 -32.421875 -7.332031 -33.335938 -7.0625 -34.234375 C -6.789062 -35.140625 -6.5 -36.023438 -6.1875 -36.890625 C -5.3125 -39.335938 -4.21875 -41.675781 -2.90625 -43.90625 C -1.601562 -46.144531 -0.414062 -48.445312 0.65625 -50.8125 C 0.8125 -51.25 1.023438 -51.632812 1.296875 -51.96875 C 1.566406 -52.300781 1.835938 -52.640625 2.109375 -52.984375 C 2.566406 -53.535156 3.15625 -53.847656 3.875 -53.921875 C 4.082031 -53.953125 4.289062 -53.925781 4.5 -53.84375 C 4.707031 -53.757812 4.914062 -53.675781 5.125 -53.59375 C 5.75 -53.5625 6.109375 -53.085938 6.203125 -52.171875 C 6.242188 -51.765625 6.148438 -51.242188 5.921875 -50.609375 L 5.53125 -49.8125 C 4.53125 -47.644531 3.554688 -45.640625 2.609375 -43.796875 L 2.390625 -43.3125 C 0.898438 -41.726562 -0.175781 -39.953125 -0.84375 -37.984375 C -1.507812 -36.015625 -2.144531 -34.023438 -2.75 -32.015625 C -3.050781 -30.953125 -3.269531 -29.875 -3.40625 -28.78125 C -3.550781 -27.6875 -3.566406 -26.585938 -3.453125 -25.484375 C -3.296875 -23.960938 -2.753906 -22.734375 -1.828125 -21.796875 C -0.910156 -20.867188 0.359375 -20.492188 1.984375 -20.671875 C 2.484375 -20.722656 3.015625 -20.75 3.578125 -20.75 C 4.148438 -20.757812 4.6875 -20.789062 5.1875 -20.84375 C 6.3125 -20.957031 7.472656 -21.15625 8.671875 -21.4375 C 9.867188 -21.726562 11.003906 -22.132812 12.078125 -22.65625 C 15.515625 -24.132812 18.675781 -25.695312 21.5625 -27.34375 C 24.96875 -29.21875 28.21875 -31.269531 31.3125 -33.5 C 34.40625 -35.726562 37.539062 -37.832031 40.71875 -39.8125 C 41.300781 -40.175781 41.875 -40.59375 42.4375 -41.0625 C 43 -41.53125 43.453125 -42.09375 43.796875 -42.75 C 44.335938 -43.507812 44.90625 -43.925781 45.5 -44 C 45.707031 -44.019531 45.941406 -43.992188 46.203125 -43.921875 C 46.472656 -43.847656 46.769531 -43.726562 47.09375 -43.5625 C 47.738281 -43.320312 48.125 -42.640625 48.25 -41.515625 C 48.257812 -41.410156 48.300781 -41.234375 48.375 -40.984375 C 48.457031 -40.742188 48.40625 -40.515625 48.21875 -40.296875 C 47.882812 -39.535156 47.523438 -39.035156 47.140625 -38.796875 C 46.765625 -38.441406 46.441406 -38.097656 46.171875 -37.765625 C 45.898438 -37.429688 45.519531 -37.132812 45.03125 -36.875 C 40.601562 -34.15625 36.269531 -31.238281 32.03125 -28.125 C 27.789062 -25.019531 23.328125 -22.398438 18.640625 -20.265625 C 17.347656 -19.722656 16.019531 -19.144531 14.65625 -18.53125 C 13.289062 -17.925781 11.910156 -17.445312 10.515625 -17.09375 Z M 5.546875 -15.96875 "/></g></g></g></g></g></svg>